<?xml version="1.0" standalone="no"?>
<!DOCTYPE svg PUBLIC "-//W3C//DTD SVG 20010904//EN"
 "http://www.w3.org/TR/2001/REC-SVG-20010904/DTD/svg10.dtd">
<svg version="1.0" xmlns="http://www.w3.org/2000/svg"
 width="432.000000pt" height="116.000000pt" viewBox="0 0 432.000000 116.000000"
 preserveAspectRatio="xMidYMid meet">

<g transform="translate(0.000000,116.000000) scale(0.100000,-0.100000)"
fill="#000000" stroke="none">
<path d="M550 1127 c0 -5 -9 -5 -20 -2 -12 4 -20 2 -20 -5 0 -6 -4 -8 -10 -5
-5 3 -10 1 -10 -5 0 -6 -4 -8 -10 -5 -5 3 -10 1 -10 -5 0 -6 -4 -8 -10 -5 -5
3 -10 1 -10 -4 0 -6 -4 -11 -9 -11 -19 0 -101 -96 -127 -147 -38 -77 -58 -205
-45 -298 11 -74 63 -229 82 -240 12 -8 12 -45 -1 -45 -8 0 -8 -28 0 -50 2 -3
2 -8 2 -12 -2 -14 68 -38 93 -32 30 7 55 39 55 70 0 31 -36 72 -67 76 -28 3
-78 62 -67 79 3 5 0 9 -6 9 -7 0 -10 7 -6 15 3 8 1 15 -5 15 -6 0 -9 7 -5 15
3 8 1 15 -5 15 -6 0 -8 9 -4 20 4 12 2 20 -5 20 -7 0 -9 12 -4 35 4 23 2 35
-5 35 -6 0 -11 19 -11 45 0 26 5 45 11 45 7 0 9 12 5 35 -5 23 -3 35 4 35 7 0
9 8 5 21 -5 16 -4 19 6 14 9 -6 11 -3 6 8 -3 10 -2 17 4 17 6 0 7 4 4 10 -7
11 25 70 37 70 4 0 8 5 8 10 0 16 48 57 95 82 53 28 151 36 192 15 62 -32 142
-127 135 -159 -1 -5 3 -8 9 -8 5 0 8 -4 4 -9 -3 -5 -1 -12 4 -16 6 -3 8 -12 4
-20 -3 -8 0 -15 7 -15 7 0 9 -8 5 -19 -4 -13 0 -20 16 -24 13 -3 26 -4 30 -1
13 7 -4 91 -30 149 -21 45 -105 147 -115 138 -3 -3 -8 2 -12 11 -3 9 -10 13
-15 10 -5 -3 -9 -1 -9 5 0 6 -7 8 -15 5 -8 -4 -15 -1 -15 5 0 6 -7 8 -15 5 -8
-4 -15 -2 -15 3 0 5 -25 9 -55 9 -30 -1 -55 -5 -55 -9z"/>
<path d="M3120 791 l0 -119 -31 15 c-41 21 -118 19 -164 -3 -44 -21 -91 -81
-106 -138 -6 -23 -9 -75 -7 -117 5 -89 34 -150 88 -187 49 -34 142 -28 193 11
l36 27 13 -27 c12 -25 20 -28 66 -31 l52 -3 0 345 0 346 -70 0 -70 0 0 -119z
m-17 -204 c15 -11 17 -27 15 -122 l-3 -110 -37 -18 c-45 -22 -83 -14 -106 21
-35 53 -14 218 30 235 25 10 84 7 101 -6z"/>
<path d="M1810 556 l0 -336 75 0 75 0 0 125 0 125 33 0 c17 0 37 -4 43 -8 6
-4 35 -50 65 -102 76 -135 82 -140 174 -140 41 0 75 3 75 6 0 15 -146 247
-164 261 -17 12 -18 16 -6 21 8 3 34 24 56 46 53 53 71 110 55 180 -15 65 -41
99 -98 127 -43 21 -65 24 -215 27 l-168 4 0 -336z m298 203 c54 -34 48 -135
-8 -164 -16 -8 -54 -15 -85 -15 l-55 0 0 93 c0 52 3 97 8 101 11 12 116 0 140
-15z"/>
<path d="M512 778 c-7 -7 -12 -9 -12 -5 0 4 -8 -1 -18 -10 -11 -10 -17 -21
-15 -25 2 -5 -1 -8 -6 -8 -14 0 -14 -37 -1 -45 6 -4 8 -11 4 -16 -3 -6 3 -13
15 -16 12 -3 21 -8 21 -12 0 -3 14 -6 30 -6 17 0 30 4 30 8 0 5 4 6 9 2 5 -3
16 3 23 13 14 20 132 39 143 23 3 -5 14 -7 25 -4 12 3 20 0 20 -7 0 -7 7 -10
15 -7 8 4 17 2 20 -4 4 -5 10 -7 15 -4 5 3 11 1 15 -5 4 -6 11 -8 16 -5 5 4 9
1 9 -5 0 -6 4 -9 9 -6 14 9 123 -68 177 -126 44 -47 85 -106 84 -123 0 -3 1
-7 1 -10 1 -3 3 -9 4 -15 1 -5 4 -11 5 -12 7 -8 5 -108 -2 -108 -5 0 -7 -4 -3
-9 3 -5 1 -12 -5 -16 -6 -4 -8 -11 -5 -16 4 -5 1 -9 -4 -9 -6 0 -11 -5 -11
-10 0 -16 -67 -73 -108 -92 -45 -21 -141 -23 -204 -5 -42 13 -46 13 -74 -11
-16 -13 -23 -21 -16 -18 6 4 12 3 12 -3 0 -6 7 -8 15 -5 8 4 15 1 15 -5 0 -6
7 -8 15 -5 8 4 15 1 15 -5 0 -6 11 -8 30 -5 19 4 30 2 30 -5 0 -6 18 -11 45
-11 26 0 45 5 45 11 0 7 10 9 25 5 16 -4 25 -2 25 5 0 6 7 9 15 5 8 -3 15 -1
15 5 0 6 5 7 10 4 6 -3 10 -1 10 5 0 6 5 8 10 5 6 -3 10 -1 10 5 0 6 5 8 10 5
6 -3 10 -1 10 6 0 7 3 10 6 6 3 -3 27 18 54 47 93 103 90 248 -8 375 -15 20
-26 39 -25 42 1 3 -12 19 -29 35 -17 16 -27 22 -23 14 5 -8 -8 0 -28 18 -40
34 -128 81 -190 101 -51 17 -102 24 -168 22 -46 -1 -61 3 -82 23 -14 13 -28
21 -31 18 -3 -3 -6 0 -6 6 0 16 -23 15 -38 0z"/>
<path d="M2454 681 c-85 -39 -131 -130 -122 -246 12 -139 96 -215 241 -215 76
0 128 16 169 51 l33 28 -32 32 -31 32 -53 -23 c-70 -30 -123 -23 -161 20 -16
16 -28 41 -28 55 l0 25 151 0 151 0 -4 69 c-4 85 -36 139 -100 170 -57 27
-156 28 -214 2z m155 -86 c28 -14 41 -33 41 -61 0 -11 -19 -14 -91 -14 -89 0
-90 0 -84 23 9 32 52 67 81 67 14 0 38 -7 53 -15z"/>
<path d="M3342 513 c3 -174 5 -191 25 -224 33 -53 77 -73 149 -67 42 3 70 11
93 27 18 13 33 22 34 20 22 -42 26 -44 76 -47 l51 -3 0 240 0 241 -70 0 -70 0
0 -174 0 -174 -34 -16 c-45 -21 -72 -20 -96 4 -18 18 -20 33 -20 190 l0 170
-71 0 -71 0 4 -187z"/>
<path d="M3820 690 c0 -6 32 -58 71 -116 l70 -105 -75 -118 c-42 -64 -76 -120
-76 -124 0 -4 28 -7 63 -7 72 0 84 8 132 95 47 82 43 82 90 2 24 -40 50 -79
58 -85 10 -9 40 -12 86 -10 l70 3 -79 123 c-44 67 -80 124 -80 127 0 2 34 52
76 112 l75 108 -62 3 c-34 2 -67 1 -74 -2 -6 -2 -31 -36 -54 -75 -23 -39 -45
-71 -49 -71 -4 0 -23 28 -42 62 -19 33 -41 67 -48 74 -16 17 -152 20 -152 4z"/>
<path d="M127 549 c-23 -22 -35 -38 -27 -34 10 4 9 1 -2 -8 -10 -8 -18 -17
-18 -21 0 -4 -7 -14 -15 -23 -8 -8 -13 -19 -10 -24 4 -5 1 -9 -5 -9 -6 0 -8
-4 -5 -10 3 -5 2 -10 -4 -10 -6 0 -8 -7 -5 -15 4 -8 2 -15 -2 -15 -5 0 -9 -36
-9 -80 0 -44 4 -80 9 -80 4 0 6 -7 2 -15 -3 -8 -2 -15 2 -15 5 0 18 -20 30
-44 14 -31 32 -50 57 -61 19 -10 35 -22 35 -27 0 -5 5 -6 10 -3 5 3 10 1 10
-5 0 -6 4 -8 10 -5 5 3 10 1 10 -5 0 -7 7 -10 15 -7 8 4 17 2 20 -3 3 -5 20
-7 36 -3 21 4 34 1 39 -8 7 -11 13 -11 34 0 14 8 35 11 50 7 16 -4 26 -2 26 4
0 7 8 9 20 5 12 -4 20 -2 20 5 0 7 7 10 15 6 8 -3 15 -1 15 5 0 6 7 9 15 5 8
-3 15 -1 15 4 0 6 6 10 13 10 19 0 67 24 67 33 0 5 5 5 10 2 6 -3 10 -1 10 4
0 6 5 11 10 11 6 0 16 4 23 9 64 51 107 97 146 156 26 38 59 76 74 83 34 17
50 53 37 86 -11 29 -21 36 -67 46 -28 7 -38 4 -57 -14 -24 -25 -29 -73 -8 -94
17 -18 15 -29 -8 -52 -11 -11 -17 -20 -12 -20 4 0 -4 -10 -18 -21 -14 -11 -18
-17 -10 -13 8 4 -5 -14 -30 -40 -24 -25 -49 -46 -55 -46 -6 0 -19 -9 -29 -21
-9 -12 -50 -36 -89 -54 -197 -90 -363 -61 -432 76 -48 94 -26 200 65 302 32
36 40 51 31 61 -6 7 -8 16 -4 19 3 4 1 7 -6 7 -6 0 -31 -18 -54 -41z"/>
</g>
</svg>
